<svg width="32" height="32" viewBox="0 0 32 32" fill="none" xmlns="http://www.w3.org/2000/svg">
<g clip-path="url(#clip0_156_37)">
<path d="M21.7991 20.7981C21.0943 20.7981 20.5235 21.3673 20.5235 22.07V29.2496C20.5235 29.3641 20.4311 29.4563 20.3163 29.4563H10.4149L3.05508 31.5453C2.83824 31.6089 2.61821 31.6375 2.39499 31.6375C1.92304 31.6375 1.45747 31.4976 1.05567 31.2273C0.468928 30.8331 0.0926454 30.2067 0.0161133 29.5103C0.146856 30.9094 1.34267 32 2.75851 32H20.3163C21.8373 32 23.0746 30.7663 23.0746 29.2496V22.07C23.0746 21.3673 22.5038 20.7981 21.7991 20.7981Z" fill="#FB7AE1"/>
<path d="M20.3163 5.79014C20.4311 5.79014 20.5236 5.88235 20.5236 5.99682V13.1765C20.5236 13.8792 21.0944 14.4483 21.7991 14.4483C22.5039 14.4483 23.0747 13.8792 23.0747 13.1765V5.99682C23.0747 4.48013 21.8374 3.24642 20.3163 3.24642H15.2524V5.79014H20.3163Z" fill="#FB7AE1"/>
<path d="M31.6844 16.9157L26.9649 12.6677C26.6843 12.4165 26.2825 12.3498 25.9349 12.5056C25.5906 12.6582 25.3673 13.0016 25.3673 13.3768V16.3529H19.8698C19.165 16.3529 18.5942 16.9221 18.5942 17.6248C18.5942 18.3275 19.165 18.8967 19.8698 18.8967H25.3673V21.8728C25.3673 22.2512 25.5906 22.5914 25.9349 22.744C26.0593 22.7981 26.1932 22.8267 26.324 22.8267C26.5568 22.8267 26.7864 22.7409 26.9649 22.5819L31.6844 18.3339C31.8853 18.1526 32.0001 17.8951 32.0001 17.6248C32.0001 17.3545 31.8853 17.097 31.6844 16.9157Z" fill="#FB7AE1"/>
<path d="M1.05551 31.2273C1.4573 31.4975 1.92287 31.6374 2.39482 31.6374C2.61485 31.6374 2.83807 31.6056 3.05491 31.5452L10.4147 29.4562L13.5079 28.5786C14.5347 28.2893 15.2522 27.3417 15.2522 26.2765V2.39101C15.2522 1.63425 14.9046 0.94109 14.2988 0.483221C13.6929 0.0285306 12.9276 -0.114554 12.2005 0.0921236L1.73792 3.06192C0.7143 3.35127 0 4.2988 0 5.36398V29.2463C0 29.3036 0.00318884 29.3703 0.00956652 29.4467C0.00956652 29.4594 0.00956652 29.4721 0.00956652 29.4848C0.00956652 29.488 0.00956652 29.4912 0.00956652 29.4944C0.00956652 29.5007 0.00956652 29.5039 0.00956652 29.5102C0.0860987 30.2066 0.465571 30.833 1.04913 31.2273H1.05551ZM12.7011 2.59451V26.1621L2.55107 29.0428V5.47845L12.7011 2.59769V2.59451Z" fill="#042A9D"/>
</g>
<defs>
<clipPath id="clip0_156_37">
<rect width="32" height="32" fill="white"/>
</clipPath>
</defs>
</svg>
